# xmcd
#
# Track frame offsets:
#	150
#	14185
#	26875
#	38808
#	51448
#	62275
#	76600
#	92123
#	101303
#	115870
#	128433
#	140278
#	151288
#	162208
#
# Disc length: 2287 seconds
#
# Revision: 1
# Processed by: cddbd v1.5.1PL0 Copyright (c) Steve Scherf et al.
# Submitted via: CDex 1.50Beta5
#
DISCID=a708ed0e
DTITLE=さまざまなアーティスト - LOVE ME TENDER STAND BY ME
DYEAR=1900
DGENRE=
TTITLE0=ペンEキング/STAND BY ME
TTITLE1=エルヴィス・プレスリー/LOVE ME TENDER
TTITLE2=SUPREMES/ベイビーラブ
TTITLE3=ANDY WILLIAMS/ムーンリヴァー
TTITLE4=アリダ・ケッソ/死ぬ程愛して
TTITLE5=ブレンダー・リー/END OF THE WORLD
TTITLE6=ルイ・アームストロング/マックザナイフ
TTITLE7=ローズマリー・クルーニー/COME ON A MY HOUSE
TTITLE8=ドリス・ディ/二人でお茶を
TTITLE9=ペリー・コモ/PAPA LOVES MOMBO
TTITLE10=DRIFTERS/ラストダンスは私に
TTITLE11=エームス・ブラザース/TAMMY
TTITLE12=ブレンダー・リー/フライ・ミー・トゥ・ザ・ムーン
TTITLE13=ドリス・ディ/WHAT EVER WILL BE WILL BE
EXTD=
EXTT0=
EXTT1=
EXTT2=
EXTT3=
EXTT4=
EXTT5=
EXTT6=
EXTT7=
EXTT8=
EXTT9=
EXTT10=
EXTT11=
EXTT12=
EXTT13=
PLAYORDER=
